M48
;DRILL file {Pcbnew (2012-apr-16-27)-stable} date Sa 06 Sep 2014 11:31:07 CEST
;FORMAT={-:-/ absolute / metric / decimal}
FMAT,2
METRIC,TZ
T1C0.813
T2C3.048
%
G90
G05
M71
T1
X86.106Y32.512
X86.106Y35.052
X86.106Y37.592
X86.106Y40.132
X86.106Y42.672
X86.106Y45.212
X86.106Y47.752
X86.106Y50.292
X86.106Y52.832
X91.544Y32.662
X104.544Y19.662
X105.545Y33.663
X109.982Y35.052
X109.982Y37.592
X109.982Y40.132
X109.982Y42.672
X109.982Y45.212
X109.982Y47.752
X109.982Y50.292
X109.982Y52.832
T2
X87.376Y20.320
X98.001Y45.001
X98.044Y25.908
X108.712Y20.320
T0
M30
